<svg xmlns:xlink="http://www.w3.org/1999/xlink" xmlns="http://www.w3.org/2000/svg" width="152" height="152" viewBox="0 0 152 152" fill="none" native-dark-active="">
<g filter="url(#filter0_d_1227_91)">
<path d="M1 37.5C1 16.7893 17.7893 0 38.5 0H151V112.5C151 133.211 134.211 150 113.5 150H1V37.5Z" fill="#092F32"></path>
</g>
<path fill-rule="evenodd" clip-rule="evenodd" d="M87.6479 93.9958C97.596 93.9958 105.667 85.4746 105.809 75.001V74.9971C105.809 64.3788 97.8734 55.9984 87.6479 55.9984C77.7032 55.9984 69.487 64.5169 69.487 74.9971C69.487 85.4759 77.5622 93.9958 87.6479 93.9958ZM75.231 74.9971C75.231 67.6007 80.8421 61.7425 87.6479 61.7425C94.588 61.7425 99.9264 67.4557 100.065 74.9997C100.063 82.2573 94.4511 88.2518 87.6479 88.2518C80.8421 88.2518 75.231 82.3936 75.231 74.9971ZM100.255 76.6772C100.32 76.1261 100.354 75.5653 100.354 74.9971C100.214 67.3178 94.7688 61.4535 87.6479 61.4535C87.5187 61.4535 87.3898 61.4556 87.2614 61.4597C87.3899 61.4556 87.5187 61.4535 87.648 61.4535C94.7689 61.4535 100.214 67.3177 100.354 74.9971C100.354 75.5653 100.32 76.126 100.255 76.6772ZM87.6479 93.7069C77.7346 93.7069 69.7759 85.3294 69.7759 74.9971C69.7759 72.2905 70.3317 69.718 71.3277 67.395C70.3317 69.7179 69.776 72.2904 69.776 74.9971C69.776 85.3293 77.7347 93.7068 87.648 93.7068C87.8007 93.7068 87.9529 93.7048 88.1047 93.7008C87.9529 93.7048 87.8006 93.7069 87.6479 93.7069ZM10.4165 80.2855L10.7429 82.5701L10.7441 82.5777C11.8851 89.281 17.4525 93.9882 24.4329 93.9882C32.2719 93.9882 38.4051 87.9945 38.4051 79.8763C38.4051 74.0483 35.024 69.159 29.9716 67.0627L40.2033 56.6889H12.8343V62.4329H26.3882L24.9266 63.8942L24.9193 63.9021C24.3957 64.466 23.8859 65.0106 23.4087 65.5205C22.2423 66.7666 21.2707 67.8047 20.7688 68.4062L17.6513 71.7878H24.5725C29.2998 71.7878 32.8007 75.2887 32.8007 80.016C32.8007 84.7495 29.2937 88.3837 24.5725 88.3837C20.5161 88.3837 17.2873 85.8217 16.478 81.9122L16.1527 80.2855H10.4165ZM29.4594 67.1705C29.5576 67.2076 29.6552 67.2458 29.7522 67.2851C34.757 69.3114 38.1162 74.1236 38.1162 79.8763C38.1162 85.6074 35.0028 90.2524 30.3925 92.4036C35.0021 90.2521 38.1149 85.6074 38.1149 79.8769C38.1149 74.0127 34.6242 69.1258 29.4581 67.171L39.5111 56.9784H13.1233V56.9778H39.5124L29.4594 67.1705ZM10.7498 80.575L10.7497 80.5745H15.9158L16.1951 81.9707C17.0328 86.0198 20.3838 88.6727 24.5725 88.6727C25.8511 88.6727 27.0437 88.4146 28.1078 87.946C27.0434 88.415 25.8504 88.6733 24.5712 88.6733C20.3825 88.6733 17.0315 86.0204 16.1938 81.9713L15.9145 80.575H10.7498ZM54.2773 66.1931H53.7188L60.7 56.9778H54.2773L54.2768 56.9784H60.6989L53.7176 66.1937H54.2761C62.0951 66.1937 67.9593 72.0579 67.9593 79.8769C67.9593 85.3477 65.0202 89.8615 60.5766 92.0793C65.0208 89.8617 67.9605 85.3476 67.9605 79.8763C67.9605 72.0573 62.0962 66.1931 54.2773 66.1931ZM68.2495 79.8763C68.2495 71.9054 62.2673 65.9156 54.3002 65.9041L61.2814 56.6889H54.1339L43.017 71.3237C41.1624 73.7491 40.1654 76.7432 40.1654 79.8763C40.1654 87.8549 46.159 93.8485 54.1376 93.8485C62.1123 93.8485 68.2495 87.8588 68.2495 79.8763ZM45.9095 79.8763C45.9095 75.149 49.4103 71.6482 54.1376 71.6482C58.8649 71.6482 62.3658 75.149 62.3658 79.8763C62.3658 84.6036 58.8649 88.1045 54.1376 88.1045C49.4103 88.1045 45.9095 84.6036 45.9095 79.8763ZM49.9968 72.3503C47.3364 73.7508 45.6205 76.5166 45.6205 79.8763C45.6205 84.7632 49.2508 88.3935 54.1376 88.3935C55.5884 88.3935 56.9285 88.0735 58.0956 87.4957C56.9282 88.0739 55.5877 88.394 54.1365 88.394C49.2496 88.394 45.6194 84.7638 45.6194 79.8769C45.6194 76.5167 47.3357 73.7506 49.9968 72.3503Z" fill="#FDFDFD"></path>
<path d="M121.859 56.8617C125.813 56.8617 129.269 57.6276 132.225 59.1594C135.218 60.6555 137.515 62.8285 139.118 65.6784C140.757 68.4926 141.576 71.7877 141.576 75.5637C141.576 79.3398 140.757 82.6171 139.118 85.3957C137.515 88.1742 135.218 90.3116 132.225 91.8078C129.269 93.2683 125.813 93.9986 121.859 93.9986H109.729V56.8617H121.859ZM121.859 89.0292C126.205 89.0292 129.536 87.8536 131.851 85.5025C134.167 83.1514 135.325 79.8385 135.325 75.5637C135.325 71.2534 134.167 67.887 131.851 65.4646C129.536 63.0423 126.205 61.8311 121.859 61.8311H115.821V89.0292H121.859Z" fill="#FDFDFD"></path>
<defs>
<filter id="filter0_d_1227_91" x="0.333333" y="0" width="151.333" height="151.333" filterUnits="userSpaceOnUse" color-interpolation-filters="sRGB">
<feFlood flood-opacity="0" result="BackgroundImageFix"></feFlood>
<feColorMatrix in="SourceAlpha" type="matrix" values="0 0 0 0 0 0 0 0 0 0 0 0 0 0 0 0 0 0 127 0" result="hardAlpha"></feColorMatrix>
<feOffset dy="0.666667"></feOffset>
<feGaussianBlur stdDeviation="0.333333"></feGaussianBlur>
<feComposite in2="hardAlpha" operator="out"></feComposite>
<feColorMatrix type="matrix" values="0 0 0 0 0 0 0 0 0 0 0 0 0 0 0 0 0 0 0.25 0"></feColorMatrix>
<feBlend mode="normal" in2="BackgroundImageFix" result="effect1_dropShadow_1227_91"></feBlend>
<feBlend mode="normal" in="SourceGraphic" in2="effect1_dropShadow_1227_91" result="shape"></feBlend>
</filter>
</defs>
</svg>